<svg xmlns="http://www.w3.org/2000/svg" viewBox="0 0 48 48" role="img" aria-label="Menta"><path fill="none" stroke="#167957" stroke-width="2" stroke-linecap="round" d="M21.2 10.6q-.7-3.7 1.5-6.3"/><path fill="#1FC98E" stroke="#167957" stroke-width="1.4" stroke-linejoin="round" d="M22.4 4.6q5.6-4.4 10.4-.2q-5.4 4.6-10.4.2z"/><path fill="#1FC98E" stroke="#167957" stroke-width="1.4" stroke-linejoin="round" d="M20.6 6.6q-3.6-3.6-7.6-1q3.8 3.4 7.6 1z"/><path fill="#1FC98E" d="M24 10h13a5 5 0 0 1 5 5v13A18 18 0 1 1 24 10z"/><path fill="#0B0F0E" d="M16.4 24.3a2.3 2.3 0 0 1 4.6 0v2.8a2.3 2.3 0 0 1-4.6 0zM26.6 24.3a2.3 2.3 0 0 1 4.6 0v2.8a2.3 2.3 0 0 1-4.6 0z"/><path fill="none" stroke="#0B0F0E" stroke-width="2.4" stroke-linecap="round" d="M19.8 33q4 3.6 8 0"/></svg>
